# 3ds Max Wavefront OBJ Exporter v0.97b - (c)2007 guruware
# 创建的文件:05.07.2018 09:58:51

mtllib c2.mtl

#
# object Polygonal_Model_2_Triangles_0
#

v  -0.1610 0.0896 1.3765
v  -0.2238 0.1222 1.3625
v  -0.1560 0.0940 1.2108
v  -0.1036 0.1015 1.3182
v  -0.0495 0.0864 1.2310
v  -0.1474 0.1149 1.1251
v  0.0320 0.1220 1.1877
v  0.0141 0.0867 1.0334
v  -0.1256 0.1650 0.9912
v  -0.2325 0.1605 1.4218
v  -0.0797 0.1589 1.3309
v  0.0757 0.1203 1.0202
v  0.1268 0.1777 1.0757
v  -0.1657 0.1881 1.4146
v  -0.1097 0.1738 1.3603
v  -0.0200 0.2086 1.2458
v  0.0012 0.2499 0.8873
v  -0.1328 0.2124 1.3122
v  -0.1600 0.2251 1.1800
v  0.0447 0.2644 1.1874
v  -0.1161 0.2788 1.1224
v  -0.1005 0.3294 0.9310
v  -0.1136 0.2465 1.2281
v  0.1060 0.2805 1.1408
v  0.1906 0.2942 0.9714
v  0.1217 0.2932 0.8714
v  -0.0307 0.3954 0.8928
v  0.2031 0.4084 1.0642
v  0.0438 0.3980 1.1059
v  0.1322 0.4026 1.1024
v  -0.0887 0.3599 1.0292
v  0.2369 0.4557 1.0018
v  0.1760 0.4646 0.8254
v  0.0791 0.3860 0.8403
v  -0.0276 0.4602 0.9949
v  0.0437 0.5564 1.0183
v  -0.0329 0.5152 0.9499
v  0.0362 0.5321 0.8132
v  0.2366 0.5423 0.9394
v  0.1972 0.5226 0.8308
v  0.1651 0.5690 1.0220
v  -0.0525 0.5888 0.8442
v  0.2224 0.6218 0.9459
v  0.1146 0.5884 0.8027
v  -0.0664 0.6182 0.9499
v  -0.0237 0.6582 1.0355
v  0.1376 0.6969 1.0454
v  -0.0402 0.6548 0.8478
v  0.1932 0.7556 0.8746
v  0.1782 0.7283 0.8466
v  -0.0345 0.7965 1.0935
v  -0.0928 0.7258 1.0189
v  -0.0962 0.7269 0.8744
v  0.1888 0.7758 0.9727
v  -0.0629 0.8109 0.8351
v  -0.2199 0.8379 0.8998
v  -0.1278 0.7808 0.8526
v  0.1491 0.8023 0.8733
v  0.1074 0.8349 1.0536
v  -0.2198 0.8319 0.9559
v  -0.0296 0.9259 1.1040
v  -0.1977 0.8730 1.0607
v  0.0534 0.9507 0.9747
v  -0.1869 0.9339 0.8693
v  -0.1708 0.9002 1.0912
v  -0.2369 0.9119 0.9430
v  0.0827 0.9046 0.8980
v  0.1279 0.8527 0.9032
v  -0.1469 0.9814 0.8656
v  -0.3095 1.0554 0.9367
v  -0.2416 0.9837 1.0409
v  -0.1566 1.0686 1.0641
v  -0.2483 1.0592 1.0371
v  -0.1468 1.0874 0.9740
v  -0.1363 1.0477 0.9078
# 75 vertices

vn 0.1313 -0.8410 0.5249
vn -0.8734 -0.4870 -0.0029
vn -0.3988 -0.9024 -0.1633
vn 0.4962 -0.7689 0.4031
vn 0.3644 -0.8728 0.3247
vn -0.7475 -0.5889 -0.3071
vn 0.6567 -0.5442 0.5222
vn 0.1232 -0.9350 -0.3327
vn -0.7606 -0.3976 -0.5133
vn -0.6894 0.1314 0.7123
vn 0.7321 0.0544 0.6790
vn 0.5294 -0.7851 -0.3215
vn 0.8347 -0.4918 0.2477
vn 0.2029 0.5531 0.8080
vn 0.7364 0.2896 0.6114
vn 0.5512 0.3082 0.7754
vn -0.1991 -0.4211 -0.8849
vn 0.0616 0.9349 0.3496
vn -0.8671 0.4728 -0.1569
vn 0.3576 0.3735 0.8559
vn -0.7657 0.6152 0.1875
vn -0.8459 0.1716 -0.5050
vn -0.2160 0.9065 0.3628
vn 0.6260 0.0560 0.7778
vn 0.8938 -0.4121 -0.1766
vn 0.4011 -0.4856 -0.7767
vn -0.7263 0.0440 -0.6860
vn 0.7448 0.0820 0.6622
vn -0.2153 0.5063 0.8351
vn 0.2573 0.3914 0.8835
vn -0.8299 0.5083 0.2300
vn 0.9572 0.0982 0.2722
vn 0.5351 -0.2126 -0.8176
vn -0.1468 -0.2409 -0.9594
vn -0.8439 0.3902 0.3684
vn -0.3417 0.0501 0.9385
vn -0.9320 -0.0330 0.3609
vn -0.2373 -0.1129 -0.9649
vn 0.9959 0.0785 0.0443
vn 0.6967 -0.0768 -0.7132
vn 0.4397 0.1263 0.8892
vn -0.7882 -0.0315 -0.6146
vn 0.9728 0.1121 0.2027
vn 0.1200 0.0220 -0.9925
vn -0.9081 -0.3441 0.2389
vn -0.4716 -0.3764 0.7974
vn 0.4572 -0.0612 0.8873
vn -0.5660 0.0420 -0.8233
vn 0.8327 0.3876 -0.3954
vn 0.6551 0.0327 -0.7548
vn -0.0781 -0.2848 0.9554
vn -0.5919 -0.6083 0.5288
vn -0.6794 -0.4862 -0.5496
vn 0.8906 0.3584 0.2800
vn -0.0646 0.0594 -0.9961
vn -0.8212 -0.3554 -0.4465
vn -0.4037 -0.3511 -0.8448
vn 0.5380 0.5084 -0.6723
vn 0.6060 0.3156 0.7302
vn -0.8498 -0.5126 0.1227
vn 0.2864 0.3591 0.8883
vn -0.7055 -0.4070 0.5802
vn 0.6203 0.7822 0.0587
vn -0.4575 0.0636 -0.8869
vn -0.3661 -0.0430 0.9296
vn -0.9445 -0.2785 -0.1744
vn 0.5303 0.6333 -0.5636
vn 0.7702 0.6073 -0.1947
vn -0.1452 0.4495 -0.8814
vn -0.8549 0.4255 -0.2969
vn -0.6840 -0.0901 0.7239
vn 0.1012 0.6980 0.7089
vn -0.5286 0.5898 0.6105
vn 0.2287 0.9704 -0.0773
vn 0.2097 0.6727 -0.7095
# 75 vertex normals

g Polygonal_Model_2_Triangles_0
usemtl 21___Default
s 1
f 1//1 2//2 3//3 
f 4//4 1//1 3//3 
f 4//4 3//3 5//5 
f 5//5 3//3 6//6 
f 7//7 5//5 8//8 
f 5//5 6//6 8//8 
f 8//8 6//6 9//9 
f 2//2 1//1 10//10 
f 11//11 4//4 5//5 
f 3//3 2//2 6//6 
f 8//8 12//12 7//7 
f 7//7 12//12 13//13 
f 10//10 1//1 14//14 
f 14//14 1//1 15//15 
f 1//1 4//4 15//15 
f 4//4 11//11 15//15 
f 11//11 5//5 16//16 
f 16//16 5//5 7//7 
f 8//8 9//9 17//17 
f 8//8 17//17 12//12 
f 14//14 15//15 18//18 
f 15//15 11//11 18//18 
f 10//10 14//14 18//18 
f 18//18 11//11 16//16 
f 2//2 10//10 19//19 
f 6//6 2//2 19//19 
f 16//16 7//7 20//20 
f 6//6 19//19 21//21 
f 6//6 21//21 9//9 
f 9//9 22//22 17//17 
f 18//18 16//16 23//23 
f 19//19 10//10 18//18 
f 19//19 18//18 23//23 
f 23//23 16//16 20//20 
f 20//20 7//7 24//24 
f 7//7 13//13 24//24 
f 13//13 12//12 25//25 
f 25//25 12//12 26//26 
f 17//17 22//22 27//27 
f 12//12 17//17 26//26 
f 19//19 23//23 21//21 
f 23//23 20//20 21//21 
f 24//24 13//13 28//28 
f 28//28 13//13 25//25 
f 29//29 20//20 24//24 
f 24//24 28//28 30//30 
f 9//9 21//21 31//31 
f 22//22 9//9 31//31 
f 21//21 20//20 29//29 
f 29//29 24//24 30//30 
f 28//28 25//25 32//32 
f 25//25 26//26 33//33 
f 32//32 25//25 33//33 
f 26//26 17//17 34//34 
f 21//21 29//29 31//31 
f 22//22 31//31 35//35 
f 27//27 22//22 35//35 
f 34//34 17//17 27//27 
f 26//26 34//34 33//33 
f 36//36 30//30 28//28 
f 29//29 30//30 36//36 
f 31//31 29//29 35//35 
f 27//27 35//35 37//37 
f 34//34 27//27 38//38 
f 29//29 36//36 35//35 
f 28//28 32//32 39//39 
f 32//32 33//33 39//39 
f 39//39 33//33 40//40 
f 33//33 34//34 38//38 
f 33//33 38//38 40//40 
f 28//28 39//39 41//41 
f 37//37 35//35 36//36 
f 38//38 27//27 42//42 
f 36//36 28//28 41//41 
f 41//41 39//39 43//43 
f 27//27 37//37 42//42 
f 40//40 38//38 44//44 
f 45//45 37//37 36//36 
f 42//42 37//37 45//45 
f 43//43 39//39 40//40 
f 46//46 36//36 41//41 
f 46//46 45//45 36//36 
f 47//47 41//41 43//43 
f 42//42 45//45 48//48 
f 43//43 40//40 49//49 
f 42//42 48//48 44//44 
f 40//40 44//44 49//49 
f 49//49 44//44 50//50 
f 38//38 42//42 44//44 
f 45//45 51//51 52//52 
f 45//45 46//46 51//51 
f 48//48 45//45 53//53 
f 48//48 53//53 44//44 
f 51//51 46//46 47//47 
f 46//46 41//41 47//47 
f 47//47 43//43 54//54 
f 45//45 52//52 53//53 
f 54//54 43//43 49//49 
f 44//44 53//53 55//55 
f 53//53 52//52 56//56 
f 57//57 53//53 56//56 
f 55//55 53//53 57//57 
f 44//44 55//55 58//58 
f 50//50 44//44 58//58 
f 50//50 58//58 49//49 
f 51//51 47//47 59//59 
f 59//59 47//47 54//54 
f 52//52 60//60 56//56 
f 51//51 59//59 61//61 
f 52//52 62//62 60//60 
f 52//52 51//51 62//62 
f 59//59 54//54 63//63 
f 54//54 49//49 58//58 
f 64//64 57//57 56//56 
f 51//51 61//61 65//65 
f 62//62 51//51 65//65 
f 61//61 59//59 63//63 
f 60//60 62//62 66//66 
f 63//63 54//54 67//67 
f 60//60 66//66 56//56 
f 67//67 54//54 68//68 
f 54//54 58//58 68//68 
f 58//58 55//55 67//67 
f 68//68 58//58 67//67 
f 57//57 64//64 69//69 
f 57//57 69//69 55//55 
f 62//62 70//70 66//66 
f 56//56 66//66 64//64 
f 55//55 69//69 67//67 
f 62//62 65//65 71//71 
f 71//71 65//65 61//61 
f 70//70 62//62 71//71 
f 72//72 71//71 61//61 
f 64//64 66//66 70//70 
f 63//63 67//67 69//69 
f 70//70 71//71 73//73 
f 71//71 72//72 73//73 
f 61//61 63//63 74//74 
f 74//74 63//63 75//75 
f 63//63 69//69 75//75 
f 64//64 70//70 75//75 
f 69//69 64//64 75//75 
f 72//72 61//61 74//74 
f 75//75 70//70 74//74 
f 73//73 72//72 70//70 
f 70//70 72//72 74//74 
# 0 polygons - 146 triangles

